<?xml version="1.0" standalone="no"?>
<!DOCTYPE svg PUBLIC "-//W3C//DTD SVG 20010904//EN"
 "http://www.w3.org/TR/2001/REC-SVG-20010904/DTD/svg10.dtd">
<svg version="1.0" xmlns="http://www.w3.org/2000/svg"
 width="5320.000000pt" height="5073.000000pt" viewBox="0 0 5320.000000 5073.000000"
 preserveAspectRatio="xMidYMid meet">

<g transform="translate(0.000000,5073.000000) scale(0.100000,-0.100000)"
fill="#000000" stroke="none">
<path d="M1062 48798 c9 -26 25263 -48787 25268 -48787 5 0 25259 48761 25268
48787 3 9 -529 12 -2541 12 l-2544 0 -10089 -17555 c-5548 -9655 -10091
-17555 -10094 -17555 -3 0 -4545 7899 -10093 17553 l-10086 17552 -2546 3
c-2017 2 -2546 -1 -2543 -10z"/>
<path d="M8333 48798 c19 -48 17989 -31303 17997 -31303 8 0 17978 31255
17997 31303 4 10 -507 12 -2548 10 l-2553 -3 -6446 -11217 c-3545 -6170 -6447
-11217 -6450 -11217 -3 0 -2905 5047 -6450 11217 l-6446 11217 -2553 3 c-2041
2 -2552 0 -2548 -10z"/>
<path d="M15624 48793 c14 -35 10699 -18623 10706 -18623 7 0 10692 18588
10706 18623 6 16 -171 17 -2523 17 l-2530 0 -2824 -4915 c-1553 -2703 -2826
-4915 -2829 -4915 -3 0 -1276 2212 -2829 4915 l-2824 4915 -2530 0 c-2349 0
-2529 -1 -2523 -17z"/>
</g>
</svg>
